<svg width="1195" height="797" viewBox="0 0 1195 797" fill="none" xmlns="http://www.w3.org/2000/svg">
<path d="M63.9156 2.60628L65.6726 0.096961L191.822 88.4277L169.453 120.375L83.5857 60.2501L63.9156 2.60628Z" fill="#FCC108"/>
<path d="M689.976 195.419L691.622 172.134L664.541 170.252L662.827 194.31C660.542 226.734 636.518 250.926 596.467 248.103C556.416 245.281 536.021 217.931 538.305 185.507L540.019 161.449L512.937 159.567L511.291 182.852C507.696 233.891 539.313 273.337 594.417 277.201C649.589 281.031 686.381 246.457 689.976 195.419Z" fill="#009845"/>
<path d="M316.882 606.044C281.266 605.842 253.344 581.382 253.344 546.706C253.344 512.031 281.266 487.604 316.882 487.369V458.204C266.683 458.406 226.229 496.206 226.229 546.706C226.229 597.207 266.683 635.007 316.882 635.209V606.044Z" fill="#E9551A"/>
<path d="M766.685 453.198C802.032 457.499 826.929 485.017 822.931 519.423C818.933 553.83 788.39 574.931 753.009 571.033L749.649 600.03C799.545 605.608 844.065 572.713 849.878 522.548C855.725 472.383 819.907 430.182 770.045 424.167L766.685 453.198Z" fill="#E9551A"/>
<path d="M439.488 216.587C430.92 232.278 414.826 236.579 398.899 228.111L290.237 170.319L276.763 195.62L384.048 252.673C414.859 269.07 447.586 258.587 463.378 229.287L439.488 216.587Z" fill="#F39700"/>
<path d="M488.275 548.521L603.893 590.588C620.827 596.771 628.421 611.555 622.474 628.455L647.942 637.729C659.131 606.38 645.019 575.065 612.192 563.137L497.986 521.574L488.275 548.521Z" fill="#009845"/>
<path d="M177.038 639.913L181.238 667.465L4.2 694.58L0 667.028L177.038 639.913Z" fill="#F39700"/>
<path d="M1008.5 752.876L1130.81 742.897V770.852L1010.79 780.663L1008.5 752.876Z" fill="#F39700"/>
<path d="M1074.29 607.422L1069.96 634.974L893.054 607.254L897.389 579.702L1074.29 607.422Z" fill="#009845"/>
<path d="M434.683 362.679L430.55 392.415L352.531 351.121L313.354 345.644L311.405 359.353L479.539 449.938L483.706 420.27L456.053 405.519L461.563 366.442L434.683 362.679Z" fill="#E84F2D"/>
<path d="M1129.53 181.844V153.15L1020.13 145.422L1018.11 174.015L1129.53 181.844Z" fill="#F39700"/>
<path d="M4.90552 253.277L124.253 218.501L132.283 245.986L12.9023 280.762L4.90552 253.277Z" fill="#E9551A"/>
<path d="M1042.71 402.966L921.178 429.275L915.13 401.252L1036.63 374.943L1042.71 402.966Z" fill="#E9551A"/>
<path d="M805.56 771.726V688.834H831.869V771.726H805.56Z" fill="#009845"/>
<path d="M33.8017 535.887L7.56006 534.039L13.4401 451.316L39.6817 453.164L33.8017 535.887Z" fill="#009845"/>
<path d="M202.877 409.988L177.643 418.69L140.482 311.103L165.715 302.401L202.877 409.988Z" fill="#F39700"/>
<path d="M421.915 730.095V657.688H448.325V730.095H421.915Z" fill="#FCC108"/>
<path d="M421.915 730.095V657.688H448.325V730.095H421.915Z" fill="#FCC108"/>
<path d="M1116.06 90.6438V18.2358H1142.47V90.6438H1116.06Z" fill="#FCC108"/>
<path d="M630.034 439.757L603.691 437.909L608.798 365.669L635.141 367.517L630.034 439.757Z" fill="#F39700"/>
<path d="M589.949 796.724V768.063H666.221V796.724H589.949Z" fill="#E27126"/>
<path d="M879.513 330.961L803.443 325.585L805.459 297.025L881.529 302.401L879.513 330.961Z" fill="#009845"/>
<path d="M248.472 796.724V768.063H295.579V796.724H248.472Z" fill="#009845"/>
<path d="M951.989 223.878C916.373 223.676 888.451 199.215 888.451 164.54C888.451 129.865 916.373 105.438 951.989 105.202V76.0376C901.79 76.2392 861.336 114.039 861.336 164.54C861.336 215.041 901.79 252.841 951.989 253.042V223.878Z" fill="#F39700"/>
<path d="M1108.26 393.659C1143.78 396.347 1169.85 422.756 1167.47 457.331C1165.01 491.905 1135.48 514.35 1099.93 512.065L1097.88 541.163C1147.94 544.455 1190.99 509.646 1194.48 459.212C1198.04 408.846 1160.34 368.324 1110.31 364.527L1108.26 393.659Z" fill="#F39700"/>
<path d="M385 96.408V24H411.41V96.408H385Z" fill="#FCC108"/>
</svg>
