<svg width="1152" height="1009" viewBox="0 0 1152 1009" fill="none" xmlns="http://www.w3.org/2000/svg">
<g opacity="0.999943">
<path d="M331.363 262.696V260.445H152.275V289.106H274.176L331.363 262.696Z" fill="#FCC108"/>
<path d="M666.59 213.808L671.832 241.528L495.835 274.792L490.594 247.072L666.59 213.808Z" fill="#F39700"/>
<path d="M289.061 148.994V172.346H316.176V148.221C316.176 115.73 338.453 89.8912 378.605 89.8912C418.757 89.8912 441.034 115.73 441.034 148.221V172.346H468.149V148.994C468.149 97.8208 433.877 60.76 378.605 60.76C323.333 60.76 289.061 97.8208 289.061 148.994Z" fill="#009845"/>
<path d="M782.913 349.182L784.56 325.898L757.478 324.016L755.765 348.074C753.48 380.498 729.456 404.69 689.405 401.867C649.353 399.045 628.958 371.694 631.243 339.27L632.957 315.213L605.875 313.331L604.229 336.616C600.633 387.654 632.251 427.101 687.355 430.965C742.526 434.795 779.318 400.221 782.913 349.182Z" fill="#009845"/>
<path d="M409.819 759.808C374.203 759.606 346.281 735.146 346.281 700.47C346.281 665.795 374.203 641.368 409.819 641.133V611.968C359.621 612.17 319.166 649.97 319.166 700.47C319.166 750.971 359.621 788.771 409.819 788.973V759.808Z" fill="#E9551A"/>
<path d="M859.622 606.962C894.969 611.262 919.867 638.781 915.869 673.187C911.87 707.594 881.328 728.694 845.947 724.797L842.587 753.794C892.483 759.371 937.003 726.477 942.816 676.312C948.662 626.147 912.844 583.946 862.982 577.931L859.622 606.962Z" fill="#E9551A"/>
<path d="M532.425 370.35C523.857 386.042 507.763 390.342 491.837 381.875L383.174 324.083L369.701 349.384L476.985 406.437C507.797 422.834 540.523 412.35 556.315 383.051L532.425 370.35Z" fill="#F39700"/>
<path d="M581.213 702.285L696.83 744.352C713.765 750.534 721.358 765.318 715.411 782.219L740.88 791.493C752.069 760.144 737.957 728.829 705.129 716.901L590.923 675.338L581.213 702.285Z" fill="#009845"/>
<path d="M269.976 793.677L274.176 821.229L97.1375 848.344L92.9375 820.792L269.976 793.677Z" fill="#F39700"/>
<path d="M1101.44 906.64L1223.75 896.661V924.616L1103.73 934.427L1101.44 906.64Z" fill="#F39700"/>
<path d="M1167.23 761.186L1162.9 788.738L985.992 761.018L990.326 733.466L1167.23 761.186Z" fill="#009845"/>
<path d="M527.621 516.443L523.488 546.179L445.469 504.885L406.291 499.408L404.342 513.117L572.477 603.702L576.643 574.034L548.99 559.283L554.501 520.206L527.621 516.443Z" fill="#E84F2D"/>
<path d="M808.584 253.288L814.833 223.955L889.694 270.592L928.435 278.824L931.358 265.25L769.977 163.106L763.761 192.371L790.305 209.003L782.073 247.643L808.584 253.288Z" fill="#E84F2D"/>
<path d="M1222.47 335.608V306.914L1113.07 299.186L1111.05 327.779L1222.47 335.608Z" fill="#F39700"/>
<path d="M97.843 407.042L217.19 372.266L225.221 399.75L105.84 434.526L97.843 407.042Z" fill="#E9551A"/>
<path d="M1135.65 556.73L1014.12 583.038L1008.07 555.016L1129.56 528.707L1135.65 556.73Z" fill="#E9551A"/>
<path d="M898.498 925.49V842.598H924.806V925.49H898.498Z" fill="#009845"/>
<path d="M126.739 689.651L100.498 687.803L106.378 605.08L132.619 606.928L126.739 689.651Z" fill="#009845"/>
<path d="M295.814 563.752L270.581 572.454L233.419 464.867L258.653 456.165L295.814 563.752Z" fill="#F39700"/>
<path d="M514.853 883.859V811.451H541.262V883.859H514.853Z" fill="#FCC108"/>
<path d="M722.971 593.522L696.629 591.674L701.736 519.434L728.078 521.282L722.971 593.522Z" fill="#F39700"/>
<path d="M682.886 950.488V921.827H759.158V950.488H682.886Z" fill="#E27126"/>
<path d="M972.451 484.725L896.381 479.349L898.397 450.789L974.467 456.165L972.451 484.725Z" fill="#009845"/>
<path d="M341.409 950.488V921.827H388.517V950.488H341.409Z" fill="#009845"/>
<path d="M1044.93 377.642C1009.31 377.44 981.389 352.979 981.389 318.304C981.389 283.629 1009.31 259.202 1044.93 258.966V229.802C994.728 230.003 954.273 267.803 954.273 318.304C954.273 368.805 994.728 406.605 1044.93 406.806V377.642Z" fill="#F39700"/>
</g>
</svg>
