<svg width="1195" height="788" viewBox="0 0 1195 788" fill="none" xmlns="http://www.w3.org/2000/svg">
<path d="M45.885 147.135L44.1279 144.626L170.277 56.2949L192.647 88.2419L106.78 148.366L45.885 147.135Z" fill="#EA561B"/>
<path d="M689.976 186.419L691.622 163.134L664.541 161.252L662.827 185.31C660.542 217.734 636.518 241.926 596.467 239.103C556.416 236.281 536.021 208.931 538.305 176.507L540.019 152.449L512.937 150.567L511.291 173.852C507.696 224.891 539.313 264.337 594.417 268.201C649.589 272.031 686.381 237.457 689.976 186.419Z" fill="#E9551A"/>
<path d="M316.882 597.044C281.266 596.842 253.344 572.382 253.344 537.706C253.344 503.031 281.266 478.604 316.882 478.369V449.204C266.683 449.406 226.229 487.206 226.229 537.706C226.229 588.207 266.683 626.007 316.882 626.209V597.044Z" fill="#E9551A"/>
<path d="M766.685 444.198C802.032 448.499 826.929 476.017 822.931 510.423C818.933 544.83 788.39 565.931 753.009 562.033L749.649 591.03C799.545 596.608 844.065 563.713 849.878 513.548C855.725 463.383 819.907 421.182 770.045 415.167L766.685 444.198Z" fill="#E9551A"/>
<path d="M439.488 207.587C430.92 223.278 414.826 227.579 398.899 219.111L290.237 161.319L276.763 186.62L384.048 243.673C414.859 260.07 447.586 249.587 463.378 220.287L439.488 207.587Z" fill="#F39700"/>
<path d="M488.275 539.521L603.893 581.588C620.827 587.771 628.421 602.555 622.474 619.455L647.942 628.729C659.131 597.38 645.019 566.065 612.192 554.137L497.986 512.574L488.275 539.521Z" fill="#009845"/>
<path d="M177.038 630.913L181.238 658.465L4.2 685.58L0 658.028L177.038 630.913Z" fill="#F39700"/>
<path d="M1008.5 743.876L1130.81 733.897V761.852L1010.79 771.663L1008.5 743.876Z" fill="#F39700"/>
<path d="M1074.29 598.422L1069.96 625.974L893.054 598.254L897.389 570.702L1074.29 598.422Z" fill="#009845"/>
<path d="M434.683 353.679L430.55 383.415L352.531 342.121L313.354 336.644L311.405 350.353L479.539 440.938L483.706 411.27L456.053 396.519L461.563 357.442L434.683 353.679Z" fill="#E84F2D"/>
<path d="M1129.53 172.844V144.15L1020.13 136.422L1018.11 165.015L1129.53 172.844Z" fill="#F39700"/>
<path d="M4.90552 244.277L124.253 209.501L132.283 236.986L12.9023 271.762L4.90552 244.277Z" fill="#E9551A"/>
<path d="M1042.71 393.966L921.178 420.275L915.13 392.252L1036.63 365.943L1042.71 393.966Z" fill="#E9551A"/>
<path d="M805.56 762.726V679.834H831.869V762.726H805.56Z" fill="#009845"/>
<path d="M33.8017 526.887L7.56006 525.039L13.4401 442.316L39.6817 444.164L33.8017 526.887Z" fill="#009845"/>
<path d="M202.877 400.988L177.643 409.69L140.482 302.103L165.715 293.401L202.877 400.988Z" fill="#F39700"/>
<path d="M421.915 721.095V648.688H448.325V721.095H421.915Z" fill="#FCC108"/>
<path d="M421.915 721.095V648.688H448.325V721.095H421.915Z" fill="#FCC108"/>
<path d="M1116.06 81.6438V9.23584H1142.47V81.6438H1116.06Z" fill="#FCC108"/>
<path d="M630.034 430.757L603.691 428.909L608.798 356.669L635.141 358.517L630.034 430.757Z" fill="#F39700"/>
<path d="M589.949 787.724V759.063H666.221V787.724H589.949Z" fill="#E27126"/>
<path d="M879.513 321.961L803.443 316.585L805.459 288.025L881.529 293.401L879.513 321.961Z" fill="#009845"/>
<path d="M248.472 787.724V759.063H295.579V787.724H248.472Z" fill="#009845"/>
<path d="M951.989 214.878C916.373 214.676 888.451 190.215 888.451 155.54C888.451 120.865 916.373 96.4376 951.989 96.2024V67.0376C901.79 67.2392 861.336 105.039 861.336 155.54C861.336 206.041 901.79 243.841 951.989 244.042V214.878Z" fill="#009845"/>
<path d="M1108.26 384.659C1143.78 387.347 1169.85 413.756 1167.47 448.331C1165.01 482.905 1135.48 505.35 1099.93 503.065L1097.88 532.163C1147.94 535.455 1190.99 500.646 1194.48 450.212C1198.04 399.846 1160.34 359.324 1110.31 355.527L1108.26 384.659Z" fill="#F39700"/>
<path d="M385 87.408V15H411.41V87.408H385Z" fill="#FCC108"/>
</svg>
